Coordinates
version=1
nRows=41
nColumns=38
inDegrees=no

Units are S.I. units (second, meters, Newtons, ...)
If the header above contains a line with 'inDegrees', this indicates whether rotational values are in degrees (yes) or radians (no).

endheader
time	pelvis_tilt	pelvis_list	pelvis_rotation	pelvis_tx	pelvis_ty	pelvis_tz	hip_flexion_r	hip_adduction_r	hip_rotation_r	knee_angle_r	ankle_angle_r	subtalar_angle_r	mtp_angle_r	hip_flexion_l	hip_adduction_l	hip_rotation_l	knee_angle_l	ankle_angle_l	subtalar_angle_l	mtp_angle_l	lumbar_extension	lumbar_bending	lumbar_rotation	arm_flex_r	arm_add_r	arm_rot_r	elbow_flex_r	pro_sup_r	wrist_flex_r	wrist_dev_r	arm_flex_l	arm_add_l	arm_rot_l	elbow_flex_l	pro_sup_l	wrist_flex_l	wrist_dev_l
2.22	2.70515	1.46763	-0.983965	0.545441	1.50816	0.924788	0.244101	-0.060225	-0.0935694	0	-0.375287	0	0	-0.353604	-0.0376358	-0.257335	0.0743692	-0.145656	0	0	-0.136183	0.0624161	-0.172687	-0.111001	-0.138011	-0.5598	0.680146	0.569478	0	0	0.0867976	-0.312208	0.201954	0.752571	1.4954	0	0
2.23	2.69666	1.46934	-0.973468	0.54557	1.51832	0.923321	0.243197	-0.0581693	-0.106665	0	-0.368143	0	0	-0.356668	-0.0426718	-0.266373	0.0901558	-0.128513	0	0	-0.133923	0.0623982	-0.179553	-0.116359	-0.156173	-0.496966	0.682832	0.506141	0	0	0.0835234	-0.313455	0.198778	0.766079	1.48779	0	0
2.24	2.69842	1.4662	-0.972824	0.545676	1.52846	0.922384	0.238626	-0.0535346	-0.116936	0	-0.369205	0	0	-0.363292	-0.0506934	-0.279024	0.109048	-0.12453	0	0	-0.136568	0.0654332	-0.173769	-0.117246	-0.14046	-0.546476	0.691039	0.550154	0	0	0.0953792	-0.311973	0.215946	0.76633	1.48266	0	0
2.25	2.68676	1.46404	-0.959116	0.545865	1.53878	0.921592	0.238368	-0.047954	-0.11843	0.00467089	-0.36769	0	0	-0.370761	-0.0578781	-0.28201	0.12021	-0.123101	0	0	-0.137122	0.0684813	-0.175625	-0.116732	-0.139965	-0.545581	0.692017	0.549262	0	0	0.0972277	-0.310052	0.216841	0.771572	1.48164	0	0
2.26	2.67229	1.45957	-0.943076	0.546052	1.54917	0.921091	0.248132	-0.0413946	-0.134584	0.0527935	-0.353373	0	0	-0.377506	-0.0678392	-0.292292	0.138362	-0.119794	0	0	-0.140214	0.0736925	-0.178541	-0.115158	-0.139981	-0.542873	0.693283	0.547204	0	0	0.0963744	-0.30789	0.214139	0.778848	1.48006	0	0
2.27	2.65508	1.45509	-0.924798	0.546297	1.55983	0.920676	0.260278	-0.0348021	-0.150932	0.110693	-0.3377	0	0	-0.383593	-0.07823	-0.303903	0.158167	-0.118219	0	0	-0.142486	0.0792367	-0.182137	-0.113514	-0.140084	-0.539489	0.693989	0.545614	0	0	0.0928478	-0.305581	0.209276	0.786699	1.47882	0	0
2.28	2.63794	1.4508	-0.906487	0.546611	1.57087	0.920308	0.270447	-0.0283652	-0.165184	0.165711	-0.321675	0	0	-0.388998	-0.0891053	-0.316632	0.179767	-0.11906	0	0	-0.143797	0.0846799	-0.187607	-0.112257	-0.140133	-0.534715	0.694713	0.544883	0	0	0.0856535	-0.303661	0.201874	0.796203	1.47625	0	0
2.29	2.62483	1.44516	-0.891563	0.546988	1.5822	0.920226	0.267705	-0.0191952	-0.166019	0.189963	-0.324225	0	0	-0.396978	-0.100011	-0.324475	0.197482	-0.123311	0	0	-0.144558	0.0903464	-0.186217	-0.116586	-0.138441	-0.539309	0.697388	0.544174	0	0	0.0869649	-0.301869	0.211592	0.796215	1.46822	0	0
2.3	2.60301	1.44111	-0.867454	0.547324	1.5938	0.920112	0.265534	-0.0106229	-0.170637	0.208459	-0.322683	0	0	-0.400677	-0.112146	-0.335042	0.220395	-0.127377	0	0	-0.143187	0.0961648	-0.191402	-0.117255	-0.13685	-0.54053	0.697148	0.547218	0	0	0.0795445	-0.299631	0.208066	0.801432	1.46488	0	0
2.31	2.58013	1.43754	-0.841569	0.547636	1.60563	0.920107	0.260749	-0.00273931	-0.175519	0.217197	-0.335547	0	0	-0.401904	-0.125373	-0.346116	0.247068	-0.13406	0	0	-0.140642	0.101951	-0.198054	-0.117991	-0.135453	-0.541105	0.696078	0.550717	0	0	0.0702262	-0.296921	0.20282	0.806019	1.46301	0	0
2.32	2.55594	1.43486	-0.813821	0.547961	1.61771	0.920171	0.254342	0.00446815	-0.181408	0.220887	-0.358437	0	0	-0.400407	-0.139044	-0.356093	0.276525	-0.143911	0	0	-0.136407	0.107221	-0.205938	-0.11904	-0.134054	-0.541217	0.694104	0.554498	0	0	0.0589267	-0.293902	0.195986	0.810073	1.46282	0	0
2.33	2.52842	1.4327	-0.783108	0.548357	1.62998	0.920336	0.246745	0.0121522	-0.187502	0.221828	-0.388638	0	0	-0.396439	-0.153351	-0.365281	0.30864	-0.161005	0	0	-0.131467	0.112217	-0.21868	-0.120704	-0.142545	-0.508825	0.689916	0.529495	0	0	0.0408284	-0.291066	0.179883	0.818666	1.46258	0	0
2.34	2.50077	1.43073	-0.753458	0.548892	1.64236	0.920674	0.242062	0.0192738	-0.197274	0.232754	-0.402185	0	0	-0.391223	-0.167104	-0.371039	0.341261	-0.19035	0	0	-0.126734	0.117088	-0.233147	-0.111399	-0.131554	-0.535579	0.681385	0.576129	0	0	0.0182668	-0.284668	0.15005	0.82819	1.47956	0	0
2.35	2.4735	1.42812	-0.725365	0.549622	1.65477	0.921238	0.238862	0.0261243	-0.206122	0.250094	-0.407665	0	0	-0.384978	-0.180539	-0.37176	0.375228	-0.215621	0	0	-0.121192	0.121955	-0.238191	-0.113343	-0.131152	-0.534893	0.677543	0.57968	0	0	0.00578434	-0.279648	0.141157	0.827938	1.48443	0	0
2.36	2.4504	1.42483	-0.703306	0.55051	1.66714	0.922044	0.236451	0.0324539	-0.21345	0.272636	-0.410118	0	0	-0.377762	-0.193091	-0.36856	0.411471	-0.244425	0	0	-0.116791	0.126807	-0.240651	-0.115675	-0.131052	-0.534527	0.674058	0.582467	0	0	-0.00586963	-0.274078	0.132697	0.825948	1.49052	0	0
2.37	2.43571	1.42	-0.691225	0.551591	1.6794	0.923192	0.2314	0.0394719	-0.217896	0.29443	-0.408864	0	0	-0.370102	-0.205421	-0.361863	0.45126	-0.275806	0	0	-0.114883	0.13187	-0.240883	-0.117584	-0.131018	-0.534535	0.670623	0.583657	0	0	-0.0166157	-0.268433	0.124545	0.822914	1.49785	0	0
2.38	2.42564	1.41396	-0.684851	0.552891	1.69146	0.924606	0.223899	0.0474367	-0.221628	0.313694	-0.40296	0	0	-0.360832	-0.218138	-0.351163	0.49576	-0.307791	0	0	-0.114868	0.137294	-0.239676	-0.118833	-0.130864	-0.534484	0.667222	0.582814	0	0	-0.0268489	-0.262941	0.116339	0.819362	1.5055	0	0
2.39	2.41909	1.40687	-0.682544	0.554383	1.70325	0.926199	0.212353	0.0571581	-0.224351	0.324931	-0.403103	0	0	-0.349146	-0.230852	-0.333698	0.546353	-0.317103	0	0	-0.115473	0.143215	-0.230866	-0.12519	-0.130619	-0.537536	0.667418	0.57685	0	0	-0.0282978	-0.261345	0.129345	0.80931	1.49499	0	0
2.4	2.40879	1.40093	-0.677378	0.556006	1.71484	0.927676	0.202075	0.0665397	-0.23092	0.336786	-0.396614	0	0	-0.332363	-0.242823	-0.312891	0.601391	-0.348481	0	0	-0.116618	0.148473	-0.228363	-0.125085	-0.128881	-0.540872	0.664547	0.582791	0	0	-0.0389458	-0.256724	0.119858	0.806771	1.50359	0	0
2.41	2.3938	1.39631	-0.667835	0.55767	1.72617	0.928902	0.191472	0.0760608	-0.238294	0.343776	-0.390819	0	0	-0.309898	-0.253556	-0.287864	0.661284	-0.379169	0	0	-0.116638	0.153298	-0.22547	-0.125125	-0.127318	-0.543417	0.662586	0.589168	0	0	-0.0497259	-0.25221	0.109681	0.804784	1.51238	0	0
2.42	2.37299	1.39347	-0.65264	0.559381	1.73727	0.929759	0.182058	0.0849115	-0.24506	0.348504	-0.381465	0	0	-0.281552	-0.26281	-0.261295	0.724671	-0.415868	0	0	-0.114375	0.157252	-0.220839	-0.131025	-0.135253	-0.51581	0.663614	0.560394	0	0	-0.0589034	-0.248952	0.10433	0.802111	1.51587	0	0
2.43	2.3515	1.39182	-0.636468	0.561095	1.7481	0.930323	0.173252	0.0928338	-0.25048	0.352369	-0.36916	0	0	-0.249048	-0.270164	-0.234397	0.790661	-0.440488	0	0	-0.112845	0.160153	-0.223753	-0.120681	-0.121044	-0.554874	0.658964	0.614567	0	0	-0.0769494	-0.242066	0.0756645	0.807639	1.5381	0	0
2.44	2.33559	1.39103	-0.625726	0.562709	1.75863	0.930764	0.164169	0.0993345	-0.253899	0.356099	-0.357424	0	0	-0.214812	-0.275719	-0.210504	0.857269	-0.454552	0	0	-0.110986	0.161755	-0.218778	-0.122865	-0.119516	-0.556027	0.661178	0.614571	0	0	-0.085745	-0.240029	0.0708043	0.80746	1.53902	0	0
2.45	2.32533	1.39133	-0.620926	0.564187	1.76898	0.931257	0.155151	0.10418	-0.255101	0.360296	-0.345487	0	0	-0.180016	-0.279649	-0.191099	0.922512	-0.465239	0	0	-0.109882	0.161748	-0.213125	-0.124192	-0.118243	-0.556942	0.662442	0.613901	0	0	-0.0938763	-0.23828	0.0664304	0.8071	1.53874	0	0
2.46	2.32529	1.39196	-0.626214	0.565491	1.77912	0.932063	0.144016	0.107588	-0.253985	0.362081	-0.335756	0	0	-0.14641	-0.282101	-0.175426	0.984329	-0.476192	0	0	-0.110757	0.160207	-0.207233	-0.124194	-0.117389	-0.556779	0.661661	0.613173	0	0	-0.100779	-0.236599	0.0623699	0.805444	1.53816	0	0
2.47	2.33934	1.39238	-0.64413	0.566523	1.78892	0.933293	0.12981	0.109332	-0.25197	0.360733	-0.328971	0	0	-0.114241	-0.282672	-0.160669	1.04223	-0.486496	0	0	-0.114681	0.157263	-0.202134	-0.122536	-0.116876	-0.555431	0.658561	0.612084	0	0	-0.105793	-0.235236	0.0588651	0.802416	1.53744	0	0
2.48	2.36569	1.39179	-0.671975	0.567296	1.79845	0.934898	0.111839	0.110323	-0.248189	0.355292	-0.324991	0	0	-0.0834883	-0.282033	-0.145095	1.09679	-0.486745	0	0	-0.121361	0.153676	-0.198749	-0.119689	-0.116169	-0.553801	0.654073	0.609128	0	0	-0.109367	-0.234298	0.0557333	0.798449	1.53647	0	0
2.49	2.40514	1.38942	-0.709754	0.567699	1.80769	0.936764	0.0894084	0.110809	-0.244199	0.346706	-0.321595	0	0	-0.0550075	-0.27996	-0.127856	1.14743	-0.471982	0	0	-0.131101	0.150006	-0.197785	-0.116357	-0.115279	-0.551954	0.64963	0.604062	0	0	-0.111746	-0.234055	0.0534429	0.794494	1.53498	0	0
2.5	2.44601	1.38737	-0.748065	0.567985	1.81689	0.9386	0.0663454	0.110838	-0.241777	0.338245	-0.316244	0	0	-0.0271151	-0.276424	-0.11226	1.19159	-0.463197	0	0	-0.13982	0.145646	-0.195255	-0.114754	-0.112569	-0.557745	0.646274	0.605007	0	0	-0.111642	-0.234739	0.0561299	0.7882	1.53222	0	0
2.51	2.48427	1.38584	-0.784613	0.56833	1.82605	0.940309	0.0430555	0.111033	-0.237573	0.326825	-0.311854	0	0	0.000117429	-0.271432	-0.098348	1.23093	-0.431156	0	0	-0.148003	0.140608	-0.194684	-0.111379	-0.10971	-0.562862	0.64147	0.608155	0	0	-0.114871	-0.234971	0.0530224	0.785	1.53191	0	0
2.52	2.51754	1.38482	-0.817832	0.568838	1.83522	0.941856	0.0209547	0.11135	-0.232241	0.315073	-0.308413	0	0	0.0267155	-0.265678	-0.0869045	1.26562	-0.384035	0	0	-0.154879	0.135275	-0.192546	-0.11351	-0.115978	-0.537255	0.638819	0.576486	0	0	-0.118531	-0.236231	0.0522697	0.78255	1.52724	0	0
2.53	2.54906	1.38372	-0.850516	0.569433	1.84445	0.943308	-0.00117406	0.111649	-0.22632	0.302168	-0.307544	0	0	0.0518985	-0.259476	-0.0778255	1.294	-0.344774	0	0	-0.161703	0.129978	-0.191989	-0.104251	-0.101792	-0.580929	0.63292	0.625467	0	0	-0.125557	-0.235321	0.0417266	0.782485	1.53295	0	0
2.54	2.58132	1.38301	-0.885196	0.570092	1.85369	0.944649	-0.0229703	0.111221	-0.219979	0.289428	-0.305318	0	0	0.0758507	-0.252496	-0.0716721	1.31495	-0.321385	0	0	-0.167818	0.123852	-0.1885	-0.103765	-0.100722	-0.579861	0.63081	0.621005	0	0	-0.130915	-0.236567	0.0389483	0.78181	1.53058	0	0
2.55	2.61463	1.3827	-0.921938	0.570808	1.86289	0.945887	-0.0435689	0.109644	-0.215197	0.278758	-0.302454	0	0	0.0987086	-0.245445	-0.0692382	1.32871	-0.307255	0	0	-0.173634	0.116956	-0.184099	-0.103536	-0.0997731	-0.578682	0.628926	0.616779	0	0	-0.136327	-0.238161	0.0366707	0.781504	1.52794	0	0
2.56	2.64894	1.38228	-0.960281	0.571531	1.87202	0.947067	-0.0633051	0.107191	-0.211932	0.269763	-0.300044	0	0	0.120012	-0.239227	-0.0709333	1.33579	-0.297049	0	0	-0.179646	0.109802	-0.179011	-0.103455	-0.099219	-0.576629	0.627067	0.612128	0	0	-0.141266	-0.239897	0.0349427	0.780996	1.52513	0	0
2.57	2.68496	1.38117	-1.00094	0.572244	1.88106	0.948217	-0.0835893	0.104263	-0.208443	0.260523	-0.298264	0	0	0.139076	-0.234116	-0.0769682	1.33688	-0.288152	0	0	-0.186457	0.102586	-0.173481	-0.103148	-0.0987681	-0.574202	0.625964	0.60607	0	0	-0.145866	-0.241807	0.0335361	0.780538	1.52182	0	0
2.58	2.71785	1.38125	-1.039	0.572918	1.89013	0.949131	-0.100783	0.100061	-0.208329	0.255956	-0.292852	0	0	0.15836	-0.229458	-0.086901	1.33288	-0.283947	0	0	-0.191068	0.0950296	-0.167654	-0.102168	-0.097077	-0.577177	0.624109	0.607578	0	0	-0.150217	-0.242869	0.0304617	0.778854	1.52341	0	0
2.59	2.7562	1.37823	-1.08264	0.573553	1.89915	0.950135	-0.123217	0.0965033	-0.206659	0.245984	-0.290936	0	0	0.172383	-0.226702	-0.102142	1.32359	-0.274189	0	0	-0.199398	0.0878157	-0.161658	-0.100845	-0.0950583	-0.580412	0.62353	0.609687	0	0	-0.154884	-0.245122	0.0291621	0.779732	1.51998	0	0
2.6	2.79129	1.37441	-1.12312	0.574114	1.90813	0.950992	-0.145941	0.0931985	-0.205179	0.235972	-0.289258	0	0	0.184697	-0.225909	-0.122248	1.31001	-0.264925	0	0	-0.208086	0.0812159	-0.155679	-0.0995269	-0.0934877	-0.582511	0.623471	0.611618	0	0	-0.159511	-0.247315	0.0278124	0.781058	1.51606	0	0
2.61	2.82232	1.36933	-1.15953	0.574599	1.91712	0.951712	-0.169915	0.0907465	-0.203041	0.224862	-0.287857	0	0	0.194676	-0.228556	-0.148535	1.29255	-0.256854	0	0	-0.217493	0.0755218	-0.149914	-0.0982226	-0.0923657	-0.583812	0.623941	0.613507	0	0	-0.164377	-0.249577	0.0266154	0.78329	1.51136	0	0
2.62	2.85415	1.3599	-1.19738	0.575091	1.9262	0.95252	-0.200611	0.0897245	-0.198213	0.208124	-0.290425	0	0	0.197653	-0.237736	-0.186123	1.27135	-0.250623	0	0	-0.231596	0.0707417	-0.142492	-0.105404	-0.103832	-0.540284	0.63092	0.563279	0	0	-0.169202	-0.254201	0.0314815	0.788808	1.49623	0	0
